HIERARCHY
ROOT Hips
{
  OFFSET 0.0 0.0 0.0
  CHANNELS 6 XPOSITION YPOSITION ZPOSITION ZROTATION XROTATION YROTATION 
  JOINT LeftUpLeg
  {
    OFFSET 0.089458 -0.0866707 0.00101652
    CHANNELS 3 ZROTATION XROTATION YROTATION 
    JOINT LeftLeg
    {
      OFFSET 0.0 -0.444227 0.013727
      CHANNELS 3 ZROTATION XROTATION YROTATION 
      JOINT LeftFoot
      {
        OFFSET -0.00253549 -0.420924 -0.0146059
        CHANNELS 3 ZROTATION XROTATION YROTATION 
        End Site
        {
          OFFSET -0.0004 -0.0441509 0.084991
        }
      }
    }
  }
  JOINT Spine
  {
    OFFSET 0.0 0.118905 0.0
    CHANNELS 3 ZROTATION XROTATION YROTATION 
    JOINT Spine1
    {
      OFFSET 0.0 0.256574 0.00127663
      CHANNELS 3 ZROTATION XROTATION YROTATION 
      End Site
      {
        OFFSET -0.0029 0.2150836 0.02525291
      }
      JOINT RightArm
      {
        OFFSET -0.162727 -0.05365632 0.00102123
        CHANNELS 3 ZROTATION XROTATION YROTATION 
        JOINT RightForeArm
        {
          OFFSET -0.26364 0.00099144 -0.0142434
          CHANNELS 3 ZROTATION XROTATION YROTATION 
          End Site
          {
            OFFSET -0.220324 0.00085362 0.0102216
          }
        }
      }
      JOINT LeftArm
      {
        OFFSET 0.162727 -0.0536563199 0.00102123
        CHANNELS 3 ZROTATION XROTATION YROTATION 
        JOINT LeftForeArm
        {
          OFFSET 0.262597 0.00099144 -0.0142434
          CHANNELS 3 ZROTATION XROTATION YROTATION 
          End Site
          {
            OFFSET 0.220902 0.00085362 0.0102216
          }
        }
      }
    }
  }
  JOINT RightUpLeg
  {
    OFFSET -0.089458 -0.0866707 0.00101652
    CHANNELS 3 ZROTATION XROTATION YROTATION 
    JOINT RightLeg
    {
      OFFSET 0.0 -0.444227 0.013727
      CHANNELS 3 ZROTATION XROTATION YROTATION 
      JOINT RightFoot
      {
        OFFSET 0.00253549 -0.420924 -0.0146059
        CHANNELS 3 ZROTATION XROTATION YROTATION 
        End Site
        {
          OFFSET 0.0004 -0.0441509 0.084991
        }
      }
    }
  }
}
MOTION
Frames: 9
Frame Time: 0.033333
1.99377 1.02809640354 0.0803301 -6.67727959063 -0.333693000687 -91.8515984866 -0.444102021444 4.1068898682 3.54897995312 -0.420911981747 10.2419992878 21.2996000021 -2.5189899876 -11.6843994905 -0.0372558971529 -0.35994099078 5.89797976577 0.153048997952 -0.644181020638 -6.58214999653 0.298974001877 76.9591359826 -18.1083273011 1.33796938505 10.0445999906 41.3713027462 4.7346598119 -72.4951292467 -8.43190268133 3.97154582782 -7.232789548 39.0306993705 -10.9356997669 -2.27630995129 5.83927983938 -5.62235986153 -0.253160001091 11.7870008847 -11.183600629 4.70954008368 -14.7014989526 0.0864561009571 
1.99365 1.02809640354 0.0804668 -6.72946991985 -0.370662013219 -91.9768983069 -0.517909018935 4.24571004799 3.52665996213 -0.425987986239 10.1060998677 21.4603997307 -2.50526024015 -11.6546002289 -0.037251898424 -0.349359000043 5.87973974559 0.19603899566 -0.684726037407 -6.48970039791 0.352103001862 76.9517320575 -18.1059333198 1.38409568023 10.0124989553 41.5228987949 4.74908004878 -72.4869193593 -8.31450795119 3.99391213603 -7.21751041482 38.8837000392 -10.9933994975 -2.3473799906 5.85210010445 -5.66555013586 -0.280520991854 11.8609001164 -10.991100285 4.75665985121 -14.7516000977 0.0864758978335 
1.99356 1.02809640354 0.0805961 -6.76156028301 -0.402336988815 -92.0531027275 -0.573114983397 4.34818977941 3.51217996109 -0.438677997469 9.98662022228 21.5628013418 -2.46721011006 -11.628400477 -0.0372483999531 -0.337481994768 5.85997018992 0.220311006691 -0.722489993245 -6.42057973728 0.385591979652 76.9671204737 -17.994406576 1.40554663637 10.0488995947 41.3307997244 4.75956993869 -72.4675830938 -8.13007149926 4.03564843384 -7.19021954022 38.7173985933 -11.0747991307 -2.40121981051 5.85868952945 -5.69733015229 -0.303736991606 11.9115997568 -10.8629001956 4.7887199054 -14.7895008174 0.0864909989549 
1.99366 1.02809640354 0.0806112 -6.70755013526 -0.38853301642 -91.9651025702 -0.531919017583 4.25565992606 3.53103000253 -0.457551010765 10.0266997723 21.4539008057 -2.43905991228 -11.6375008503 -0.0372495972372 -0.353329981313 5.83877995491 0.18411100409 -0.680588009987 -6.46013976607 0.341652012019 76.9900767395 -17.8527962639 1.3910758134 10.1734993206 40.8638982381 4.70713969907 -72.4525225267 -8.05268887106 4.06671426862 -7.17835037899 38.7075016492 -11.0956995095 -2.36349005897 5.82240969902 -5.6630801687 -0.300305968807 11.873099688 -10.9918994172 4.76987029084 -14.76360074 0.0864807003103 
1.99387 1.02809640354 0.0806206 -6.61162994676 -0.359324993094 -91.8384981837 -0.458589999932 4.07517004281 3.56345013576 -0.479741014718 10.1359998745 21.2926007658 -2.4415700068 -11.6540000261 -0.0372518017074 -0.372713017641 5.83555012921 0.132337996758 -0.628146991478 -6.57922027226 0.276898990562 76.9866684751 -17.7879828913 1.38267894959 10.2844011022 40.6323001837 4.61072987139 -72.432243695 -8.14653140139 4.08437543027 -7.19617973405 38.8406015455 -11.037999779 -2.2939901094 5.75234988738 -5.59476973926 -0.292620992134 11.8044998293 -11.2045001541 4.74120996331 -14.7132998119 0.0864607033307 
1.99398 1.02809640354 0.0806258 -6.55882020476 -0.354816001025 -91.7999007847 -0.438476987137 3.98709005771 3.57821999295 -0.494968974834 10.1801997362 21.2479005928 -2.44724013103 -11.6505994456 -0.0372514015011 -0.366965013248 5.85693972037 0.118506997091 -0.647536991398 -6.67225982848 0.261885994643 76.9522716424 -17.7711157392 1.39173844847 10.2976994805 40.7795010056 4.57080015861 -72.3988850511 -8.30880047437 4.09224594262 -7.22726050986 38.9825977633 -10.9615998442 -2.27206007953 5.70826998091 -5.55738982148 -0.300282009784 11.7742002564 -11.2863002072 4.7430797276 -14.695899905 0.0864538998219 
1.9939 1.02809640354 0.0806263 -6.56983986121 -0.36708400795 -91.8080970118 -0.458468017022 4.00966980933 3.57429989126 -0.49408595944 10.1709994714 21.2680001319 -2.42357992886 -11.6457995302 -0.0372507011399 -0.352132990661 5.85410006922 0.131552004735 -0.698663998904 -6.64310004336 0.282444010271 76.9245069235 -17.7547984172 1.41477966475 10.2568993455 40.9409017908 4.60374002655 -72.3694879169 -8.43195049265 4.07065571466 -7.24961998789 39.0741974302 -10.9103000009 -2.29002006195 5.72636016381 -5.56944980112 -0.305263992453 11.7752999168 -11.2586994127 4.76440998149 -14.7125997175 0.0864604965573 
1.99374 1.02809640354 0.0806216 -6.59041964807 -0.36797801568 -91.7741031603 -0.459280009121 4.02958023765 3.56955995342 -0.489866023111 10.1893001095 21.2332003181 -2.38251021482 -11.6623004134 -0.0372530023266 -0.330688998112 5.82308033822 0.122751999681 -0.746760963739 -6.57186970806 0.282397986535 76.9437612267 -17.7586830873 1.43714714689 10.2654994074 40.8065997811 4.6089800623 -72.3440522925 -8.53494974533 4.03955060629 -7.27170028193 39.1726990033 -10.8573002943 -2.30077013937 5.76630994027 -5.60230984122 -0.282432004079 11.7717004071 -11.2526999453 4.77282007879 -14.7311009924 0.0864678003241 
1.99363 1.02809640354 0.0806111 -6.57621968478 -0.365246980548 -91.7159031183 -0.445678007554 3.99814002313 3.56480998374 -0.489272010097 10.2251995838 21.1714007665 -2.35997016367 -11.6810996554 -0.0372554969465 -0.262940004889 5.87998990127 0.0828286968786 -0.865998991175 -6.70257007358 0.258066985082 76.9938333435 -17.7540658795 1.38643139148 10.3097001229 40.5839014632 4.57997011446 -72.2871158355 -8.62868640773 4.09054778684 -7.29339979292 39.2800012752 -10.8018997761 -2.30493015146 5.77357982287 -5.63107006027 -0.245913997475 11.758099793 -11.2793991548 4.76306016535 -14.7400997667 0.0864714021817 
